<mxfile host="app.diagrams.net" modified="2021-10-06T09:05:39.482Z" agent="5.0 (Windows NT 10.0; Win64; x64) AppleWebKit/537.36 (KHTML, like Gecko) Chrome/94.0.4606.61 Safari/537.36" etag="hj6g5r6mNaAzDhWLO1sK" version="15.4.3" type="github">
  <diagram name="Page-1" id="90a13364-a465-7bf4-72fc-28e22215d7a0">
    <mxGraphModel dx="2076" dy="1094" grid="1" gridSize="10" guides="1" tooltips="1" connect="1" arrows="1" fold="1" page="1" pageScale="1.5" pageWidth="1169" pageHeight="826" background="none" math="0" shadow="0">
      <root>
        <mxCell id="0" style=";html=1;" />
        <mxCell id="1" style=";html=1;" parent="0" />
        <mxCell id="ZkzLgbns3vP0R5ubK6po-3" value="" style="whiteSpace=wrap;html=1;aspect=fixed;" vertex="1" parent="1">
          <mxGeometry x="320" y="460" width="500" height="500" as="geometry" />
        </mxCell>
        <mxCell id="ZkzLgbns3vP0R5ubK6po-4" value="&lt;font style=&quot;font-size: 36px&quot;&gt;主控部分&lt;/font&gt;" style="rounded=1;whiteSpace=wrap;html=1;dashed=1;" vertex="1" parent="1">
          <mxGeometry x="475" y="1010" width="190" height="60" as="geometry" />
        </mxCell>
        <mxCell id="ZkzLgbns3vP0R5ubK6po-5" value="" style="whiteSpace=wrap;html=1;aspect=fixed;" vertex="1" parent="1">
          <mxGeometry x="1080" y="460" width="500" height="500" as="geometry" />
        </mxCell>
        <mxCell id="ZkzLgbns3vP0R5ubK6po-8" value="" style="shape=doubleArrow;whiteSpace=wrap;html=1;" vertex="1" parent="1">
          <mxGeometry x="820" y="670" width="260" height="60" as="geometry" />
        </mxCell>
        <mxCell id="ZkzLgbns3vP0R5ubK6po-9" value="" style="shape=doubleArrow;direction=south;whiteSpace=wrap;html=1;fontSize=36;" vertex="1" parent="1">
          <mxGeometry x="540" y="310" width="60" height="150" as="geometry" />
        </mxCell>
        <mxCell id="ZkzLgbns3vP0R5ubK6po-12" value="上位机" style="rounded=1;whiteSpace=wrap;html=1;fontSize=36;fillColor=#f5f5f5;strokeColor=#666666;fontColor=#333333;" vertex="1" parent="1">
          <mxGeometry x="465" y="180" width="210" height="130" as="geometry" />
        </mxCell>
        <mxCell id="ZkzLgbns3vP0R5ubK6po-13" value="&lt;font style=&quot;font-size: 36px&quot;&gt;驱动部分&lt;/font&gt;" style="rounded=1;whiteSpace=wrap;html=1;dashed=1;" vertex="1" parent="1">
          <mxGeometry x="1235" y="1010" width="190" height="60" as="geometry" />
        </mxCell>
        <mxCell id="ZkzLgbns3vP0R5ubK6po-14" value="电源&amp;amp;通讯" style="whiteSpace=wrap;html=1;aspect=fixed;fontSize=36;fillColor=#f8cecc;strokeColor=#b85450;" vertex="1" parent="1">
          <mxGeometry x="540" y="460" width="280" height="280" as="geometry" />
        </mxCell>
        <mxCell id="ZkzLgbns3vP0R5ubK6po-16" value="四通阀" style="rounded=0;whiteSpace=wrap;html=1;fontSize=36;fillColor=#e1d5e7;strokeColor=#9673a6;" vertex="1" parent="1">
          <mxGeometry x="320" y="460" width="220" height="100" as="geometry" />
        </mxCell>
        <mxCell id="ZkzLgbns3vP0R5ubK6po-17" value="电子膨胀阀" style="rounded=0;whiteSpace=wrap;html=1;fontSize=36;fillColor=#e1d5e7;strokeColor=#9673a6;" vertex="1" parent="1">
          <mxGeometry x="320" y="560" width="220" height="90" as="geometry" />
        </mxCell>
        <mxCell id="ZkzLgbns3vP0R5ubK6po-18" value="温度检测" style="rounded=0;whiteSpace=wrap;html=1;fontSize=36;fillColor=#e1d5e7;strokeColor=#9673a6;" vertex="1" parent="1">
          <mxGeometry x="320" y="650" width="220" height="90" as="geometry" />
        </mxCell>
        <mxCell id="ZkzLgbns3vP0R5ubK6po-19" value="MCU" style="rounded=0;whiteSpace=wrap;html=1;fontSize=36;fillColor=#dae8fc;strokeColor=#6c8ebf;" vertex="1" parent="1">
          <mxGeometry x="320" y="740" width="500" height="220" as="geometry" />
        </mxCell>
        <mxCell id="ZkzLgbns3vP0R5ubK6po-22" value="boost" style="rounded=0;whiteSpace=wrap;html=1;fontSize=36;fillColor=#ffe6cc;strokeColor=#d79b00;" vertex="1" parent="1">
          <mxGeometry x="1080" y="790" width="240" height="170" as="geometry" />
        </mxCell>
        <mxCell id="ZkzLgbns3vP0R5ubK6po-23" value="压缩机" style="rounded=0;whiteSpace=wrap;html=1;fontSize=36;fillColor=#ffe6cc;strokeColor=#d79b00;" vertex="1" parent="1">
          <mxGeometry x="1320" y="790" width="260" height="170" as="geometry" />
        </mxCell>
        <mxCell id="ZkzLgbns3vP0R5ubK6po-28" value="风机1" style="rounded=0;whiteSpace=wrap;html=1;fontSize=36;fillColor=#ffe6cc;strokeColor=#d79b00;" vertex="1" parent="1">
          <mxGeometry x="1320" y="620" width="260" height="170" as="geometry" />
        </mxCell>
        <mxCell id="ZkzLgbns3vP0R5ubK6po-29" value="风机2" style="rounded=0;whiteSpace=wrap;html=1;fontSize=36;fillColor=#ffe6cc;strokeColor=#d79b00;" vertex="1" parent="1">
          <mxGeometry x="1320" y="460" width="260" height="170" as="geometry" />
        </mxCell>
        <mxCell id="ZkzLgbns3vP0R5ubK6po-36" value="MCU" style="rounded=0;whiteSpace=wrap;html=1;fontSize=36;fillColor=#dae8fc;strokeColor=#6c8ebf;" vertex="1" parent="1">
          <mxGeometry x="1200" y="460" width="120" height="330" as="geometry" />
        </mxCell>
        <mxCell id="ZkzLgbns3vP0R5ubK6po-37" value="辅助电源 &amp;amp; 通讯" style="rounded=0;whiteSpace=wrap;html=1;fontSize=36;fillColor=#f8cecc;strokeColor=#b85450;" vertex="1" parent="1">
          <mxGeometry x="1080" y="460" width="120" height="330" as="geometry" />
        </mxCell>
        <mxCell id="ZkzLgbns3vP0R5ubK6po-38" value="通讯" style="text;strokeColor=none;fillColor=none;html=1;fontSize=24;fontStyle=1;verticalAlign=middle;align=center;" vertex="1" parent="1">
          <mxGeometry x="900" y="630" width="100" height="40" as="geometry" />
        </mxCell>
        <mxCell id="ZkzLgbns3vP0R5ubK6po-40" value="通讯" style="text;strokeColor=none;fillColor=none;html=1;fontSize=24;fontStyle=1;verticalAlign=middle;align=center;" vertex="1" parent="1">
          <mxGeometry x="600" y="365" width="100" height="40" as="geometry" />
        </mxCell>
      </root>
    </mxGraphModel>
  </diagram>
</mxfile>
